<svg id="Rechteck" xmlns="http://www.w3.org/2000/svg" width="4000" height="1000" viewBox="0 0 4000 1000">
  <defs>
    <style>
      .cls-1 {
        fill: #fdeb19;
      }

      .cls-1, .cls-2 {
        stroke: #000;
        stroke-width: 1px;
      }

      .cls-1, .cls-2, .cls-3, .cls-4 {
        fill-rule: evenodd;
      }

      .cls-3 {
        fill: #e30614;
      }
    </style>
  </defs>
  <path id="Gelbes_Rechteck" data-name="Gelbes Rechteck" class="cls-1" d="M32.076,426.336H897.423V689.768H32.076V426.336Z"/>
  <path id="Schwarzes_Rechteck" data-name="Schwarzes Rechteck" class="cls-2" d="M59.49,451.367H871.184V667.1H59.49V451.367Z"/>
  <path id="TAXI" class="cls-1" d="M78.211,509.841h60.033V653.3h58.864V509.841h60.034V462.8H78.211v47.039ZM418.976,653.3h61.641L409.035,462.8H344.827l-71.6,190.5h60.1l9.285-31.446h66.829ZM355.4,580.66l20.807-68.48,21.027,68.48H355.4ZM572.68,554.022L506.97,653.3h65.751l37.618-61.2,37.619,61.2H714.1l-64.881-98.237L708.511,462.8H644.319l-32.81,58.6-33.72-58.6H512.947ZM761.891,653.3h58.994V462.8H761.891V653.3Z"/>
  <path id="_5555" data-name="5555" class="cls-3" d="M2173.23,590.133l83.63,10.417q11.8-11.455,21.7-15.834a65.511,65.511,0,0,1,27.47-6.042q22.425,0,35.92,12.709t13.49,40q0,26.672-13.37,40.107T2308.2,684.93q-18.315,0-31.57-10.73t-16.87-31.356l-99.31,9.376q7.23,21.461,18.08,35.835t28.32,25.731q17.475,11.358,42.42,17.084t59.9,5.73q48.675,0,79.9-14.376,31.2-14.376,48.2-41.669t17-56.878q0-42.083-33.03-69.8-33.015-27.707-86.04-27.71a155.547,155.547,0,0,0-31.7,3.333,187.424,187.424,0,0,0-32.42,10l8.44-45.836h157.87V425.957H2204.32Zm427.97,0,83.63,10.417q11.8-11.455,21.69-15.834a65.59,65.59,0,0,1,27.48-6.042q22.41,0,35.91,12.709t13.5,40q0,26.672-13.38,40.107t-33.86,13.438q-18.315,0-31.57-10.73t-16.88-31.356l-99.3,9.376q7.23,21.461,18.08,35.835t28.32,25.731q17.475,11.358,42.42,17.084t59.89,5.73q48.69,0,79.91-14.376,31.2-14.376,48.2-41.669t16.99-56.878q0-42.083-33.02-69.8t-86.04-27.71a155.474,155.474,0,0,0-31.7,3.333,187.424,187.424,0,0,0-32.42,10l8.44-45.836h157.87V425.957H2632.29Zm427.96,0,83.64,10.417q11.8-11.455,21.69-15.834a65.59,65.59,0,0,1,27.48-6.042q22.41,0,35.91,12.709t13.5,40q0,26.672-13.38,40.107t-33.86,13.438q-18.33,0-31.58-10.73t-16.87-31.356l-99.3,9.376q7.23,21.461,18.08,35.835t28.32,25.731q17.46,11.358,42.42,17.084t59.89,5.73q48.69,0,79.9-14.376t48.21-41.669q16.995-27.292,16.99-56.878,0-42.083-33.02-69.8t-86.05-27.71a155.452,155.452,0,0,0-31.69,3.333,187.424,187.424,0,0,0-32.42,10l8.44-45.836h157.87V425.957H3060.26Zm427.97,0,83.64,10.417q11.8-11.455,21.69-15.834a65.522,65.522,0,0,1,27.48-6.042q22.41,0,35.91,12.709t13.5,40q0,26.672-13.38,40.107t-33.86,13.438q-18.33,0-31.58-10.73t-16.87-31.356l-99.3,9.376q7.23,21.461,18.07,35.835t28.32,25.731q17.475,11.358,42.42,17.084,24.96,5.728,59.9,5.73,48.69,0,79.9-14.376t48.21-41.669q16.98-27.292,16.99-56.878,0-42.083-33.02-69.8t-86.05-27.71a155.378,155.378,0,0,0-31.69,3.333,187.158,187.158,0,0,0-32.42,10l8.43-45.836H3721.3V425.957H3488.22Z"/>
  <path id="_02972_" data-name="(02972)" class="cls-4" d="M2248.84,397.179a88.736,88.736,0,0,1-9.03-19.6,65.551,65.551,0,0,1-3.3-20.139,66.554,66.554,0,0,1,5.57-27q5.565-12.736,20.4-30.9H2241.7a116.248,116.248,0,0,0-23.59,24.755q-10.725,15.465-10.72,32.787,0,13.967,8.66,28.891t25.22,28.771h20.88a175.287,175.287,0,0,1-13.31-17.563h0Zm169.79-87.511q-15.585,10.909-15.58,35.724,0,25.295,14.18,35.154t37.33,9.86q23.055,0,35.93-8.991,15.585-10.908,15.59-35.843,0-25-15.48-35.784-12.99-9.111-36.04-9.111t-35.93,8.991h0Zm45.73,6.923q4.275,1.948,7.09,7.732t2.81,21.249q0,15.463-3.14,21.937a13.642,13.642,0,0,1-6.71,6.983,25.911,25.911,0,0,1-19.64.03q-4.275-1.917-7.09-7.7t-2.81-21.248q0-15.465,3.14-22a13.608,13.608,0,0,1,6.71-6.983,23.708,23.708,0,0,1,9.84-1.948A23.421,23.421,0,0,1,2464.36,316.591Zm228.5,56.673a38.75,38.75,0,0,1,6.22-4.676q3.84-2.4,18.24-9.71,14.385-7.312,19.91-11.209,8.34-5.872,12.18-11.238a19.107,19.107,0,0,0,3.84-11.3q0-10.43-13.42-17.442t-36.91-7.013q-21.42,0-35.71,6.054t-16.99,19.96l30.3,1.678q0.87-7.373,6.5-10.549t15.15-3.177q9.63,0,15.09,3.027t5.47,8.661q0,5.1-6.28,10.31-4.65,3.776-25.21,14.385-25.545,13.126-34.2,21.069t-10.39,16.813h106.6V373.264h-60.39Zm220.44,11.718q11.475,5.484,30.09,5.484,25.86,0,41.99-10.669t16.12-34.765q0-23.676-15.47-34.016t-39.61-10.339q-22.2,0-36.53,8.182t-14.34,21.548q0,12.828,13.58,20.829t32.31,8q17.2,0,28.68-7.373-1.845,15.105-8.44,19.9a26.536,26.536,0,0,1-16.02,4.8q-7.47,0-12.01-2.4a10.477,10.477,0,0,1-5.63-7.373l-29.44,1.8Q2901.835,379.5,2913.3,384.982Zm48.1-41.928q-6,3.837-14.77,3.836-9.09,0-15.15-3.986t-6.06-12.5q0-8.391,5.57-12.078t14.02-3.686a27.616,27.616,0,0,1,15.64,4.5,14.334,14.334,0,0,1,6.76,12.647A12.523,12.523,0,0,1,2961.4,343.054Zm253.07-25.174q-21.42,14.923-34.25,33.865t-13.58,37.163h29.33q-0.12-11.628,6.87-26.4a98.389,98.389,0,0,1,20.29-27.9q13.32-13.128,26.19-20.14V302.235h-104V317.88h69.15Zm220.55,55.384a38.75,38.75,0,0,1,6.22-4.676q3.84-2.4,18.24-9.71t19.91-11.209q8.34-5.872,12.18-11.238a19.107,19.107,0,0,0,3.84-11.3q0-10.43-13.42-17.442t-36.9-7.013q-21.435,0-35.72,6.054t-16.99,19.96l30.3,1.678q0.87-7.373,6.5-10.549t15.15-3.177q9.63,0,15.1,3.027t5.46,8.661q0,5.1-6.28,10.31-4.65,3.776-25.21,14.385-25.545,13.126-34.2,21.069t-10.39,16.813h106.6V373.264h-60.39Zm224.12,41.478q18.615-15.645,26.73-31.708,7.14-14.325,7.14-26.853,0-14.865-9.03-29.311-9.045-14.444-25.38-27.332h-20.67q14.82,18.162,20.34,30.9a67.182,67.182,0,0,1,5.52,27,61.759,61.759,0,0,1-1.51,13.7,83.819,83.819,0,0,1-4.66,14.115,85.476,85.476,0,0,1-6.81,13.127,182.391,182.391,0,0,1-12.67,16.364h21Z"/>
  <path id="HABBEL" class="cls-2" d="M976.669,642.655h51.971V573.721h56.8v68.934h52.2V472.239h-52.2v59.634h-56.8V472.239H976.669V642.655Zm308.5,0h54.43l-63.21-170.416H1219.7l-63.22,170.416h53.07l8.2-28.131h59.01Zm-56.13-64.981,18.37-61.262,18.56,61.262h-36.93Zm128.37,64.981h89.72q5.73,0,23.29-2.325,13.2-1.743,19.73-5.58a45.019,45.019,0,0,0,16.64-16.739,46.984,46.984,0,0,0,6.08-23.83q0-16.274-8.55-27.027-8.535-10.752-26.67-15.171,11.925-4.183,18.13-11.392,9.285-10.81,9.29-25.922a39.763,39.763,0,0,0-13.02-30.224q-13.02-12.205-37.35-12.206h-97.29V642.655Zm52.43-135.891h22.95q11.82,0,16.58,4.185t4.76,11.624q0,8.022-4.76,12.264t-16.93,4.243h-22.6V506.764Zm0,64.749h26.39q13.65,0,19.1,4.591a15.081,15.081,0,0,1,5.45,12.148q0,8.138-5.5,12.961-5.52,4.825-18.94,4.825h-26.5V571.513Zm131.51,71.142h89.72q5.745,0,23.3-2.325,13.185-1.743,19.73-5.58a45.093,45.093,0,0,0,16.64-16.739,46.984,46.984,0,0,0,6.08-23.83q0-16.274-8.55-27.027t-26.68-15.171q11.94-4.183,18.13-11.392,9.3-10.81,9.29-25.922a39.763,39.763,0,0,0-13.02-30.224q-13.02-12.205-37.34-12.206h-97.3V642.655Zm52.44-135.891h22.94q11.82,0,16.58,4.185t4.76,11.624q0,8.022-4.76,12.264t-16.92,4.243h-22.6V506.764Zm0,64.749h26.38q13.665,0,19.11,4.591a15.111,15.111,0,0,1,5.45,12.148q0,8.138-5.51,12.961t-18.93,4.825h-26.5V571.513Zm131.28,71.142h141.81V604.061h-89.72V570.467h80.88V535.709h-80.88V508.624h87.19V472.239H1725.07V642.655Zm170.98,0h133.09V600.69h-81.12V472.239h-51.97V642.655Z"/>
  <path id="Seit_1933_im_Dienst_des_Kunden" data-name="Seit 1933 im Dienst des Kunden" class="cls-2" d="M42.48,392.836q6.5,5.608,18.638,5.609a36.241,36.241,0,0,0,13.924-2.336,18.307,18.307,0,0,0,8.642-7.136,20.145,20.145,0,0,0,.5-20.494,17.971,17.971,0,0,0-7.071-6.5Q72.6,359.6,63.169,357.371T51.3,353.093a4.912,4.912,0,0,1-1.921-3.885,4.662,4.662,0,0,1,2.052-3.972q3.186-2.313,8.817-2.313,5.456,0,8.184,2.16t3.557,7.093l12.92-.567q-0.306-8.817-6.395-14.1t-18.136-5.281a32.014,32.014,0,0,0-12.593,2.226,17.346,17.346,0,0,0-7.988,6.482,16.445,16.445,0,0,0-2.772,9.144,16.651,16.651,0,0,0,5.893,12.877q4.19,3.754,14.579,6.329Q65.57,371.3,67.84,372.08a10.65,10.65,0,0,1,4.649,2.772,5.828,5.828,0,0,1,1.331,3.863,7.856,7.856,0,0,1-3.165,6.176q-3.165,2.641-9.406,2.641-5.893,0-9.363-2.968t-4.6-9.3L34.71,376.489Q35.976,387.226,42.48,392.836Zm81.152-5.216a7.511,7.511,0,0,1-4.845,1.571,9.28,9.28,0,0,1-7.071-3.034q-2.838-3.033-2.968-8.49h30.729q0.262-14.1-5.718-20.929t-16.325-6.831a19.836,19.836,0,0,0-15.233,6.525q-6.024,6.526-6.024,18.049,0,9.648,4.583,15.976,5.8,7.9,17.9,7.9,7.638,0,12.724-3.514a20.043,20.043,0,0,0,7.442-10.235L126.6,382.556A9.7,9.7,0,0,1,123.632,387.62Zm-14.666-17.46a11.318,11.318,0,0,1,2.575-7.944,8.851,8.851,0,0,1,13.008-.153q2.619,2.772,2.75,8.1H108.966Zm55.007-25.491V333.32H151.707v11.349h12.266Zm0,52.641V350.954H151.707V397.31h12.266Zm27.682-46.356V334.586l-12.309,7.158v9.21h-5.631v9.778h5.631v20.209a59.438,59.438,0,0,0,.393,8.643,11.368,11.368,0,0,0,1.724,4.779,8.718,8.718,0,0,0,3.907,2.881,15.365,15.365,0,0,0,5.98,1.113,24.386,24.386,0,0,0,9.69-1.833l-1.048-9.516a15.863,15.863,0,0,1-4.932,1.179,3.454,3.454,0,0,1-2.073-.611,2.692,2.692,0,0,1-1.092-1.55,46.464,46.464,0,0,1-.24-6.613V360.732h8.381v-9.778h-8.381Zm74.963-17.9h-9.952a22.633,22.633,0,0,1-7.726,10.236,35.48,35.48,0,0,1-10.432,5.958v11.13a42.282,42.282,0,0,0,15.845-9.3V397.31h12.265V333.058Zm26.766,61.393q4.626,3.993,12.135,3.994a21.042,21.042,0,0,0,16.936-7.77q6.5-7.769,6.5-25.317,0-17.241-6.242-24.771a20.934,20.934,0,0,0-30.707-1.571q-5.784,5.958-5.783,15.692,0,9.342,5.478,15.168a17.282,17.282,0,0,0,13.029,5.827,14.642,14.642,0,0,0,11.567-5.369q-0.743,11-3.405,14.492a7.9,7.9,0,0,1-6.46,3.492,6.733,6.733,0,0,1-4.845-1.746,8.591,8.591,0,0,1-2.27-5.369l-11.872,1.31Q288.758,390.457,293.384,394.451Zm19.4-30.533a7.585,7.585,0,0,1-5.958,2.794,7.668,7.668,0,0,1-6.111-2.9q-2.445-2.9-2.444-9.1,0-6.111,2.248-8.8a7.066,7.066,0,0,1,5.652-2.685,8.05,8.05,0,0,1,6.308,3.274q2.727,3.273,2.728,9.21Q315.209,361.124,312.786,363.918ZM345.335,393.4q5.718,5,14.405,5a21.2,21.2,0,0,0,15.321-5.936,19.219,19.219,0,0,0,6.154-14.361,15.329,15.329,0,0,0-3.295-9.908,14.908,14.908,0,0,0-8.8-5.282q9.21-5.019,9.21-13.444a15.04,15.04,0,0,0-4.5-10.65q-5.455-5.762-14.491-5.762a22.291,22.291,0,0,0-9.538,1.986,16.066,16.066,0,0,0-6.634,5.456,25.263,25.263,0,0,0-3.558,9.276l11.306,1.92a10.252,10.252,0,0,1,2.706-6.373A7.393,7.393,0,0,1,359,343.141a6.61,6.61,0,0,1,7.027,7.071,7.691,7.691,0,0,1-2.619,6.089q-2.619,2.292-7.6,2.161l-1.353,10a21.363,21.363,0,0,1,5.631-.917,7.932,7.932,0,0,1,6.067,2.706,10.416,10.416,0,0,1,2.488,7.333,11.171,11.171,0,0,1-2.6,7.77,8.64,8.64,0,0,1-12.418.48,11.236,11.236,0,0,1-3.056-6.94L338.7,380.33A19.639,19.639,0,0,0,345.335,393.4Zm51.952,0q5.718,5,14.4,5a21.2,21.2,0,0,0,15.321-5.936,19.219,19.219,0,0,0,6.154-14.361,15.324,15.324,0,0,0-3.3-9.908,14.908,14.908,0,0,0-8.795-5.282q9.208-5.019,9.21-13.444a15.044,15.044,0,0,0-4.5-10.65q-5.457-5.762-14.492-5.762a22.283,22.283,0,0,0-9.537,1.986,16.069,16.069,0,0,0-6.635,5.456,25.263,25.263,0,0,0-3.557,9.276l11.305,1.92a10.257,10.257,0,0,1,2.706-6.373,7.4,7.4,0,0,1,5.369-2.182,6.61,6.61,0,0,1,7.027,7.071,7.693,7.693,0,0,1-2.618,6.089q-2.619,2.292-7.6,2.161l-1.354,10a21.369,21.369,0,0,1,5.631-.917,7.931,7.931,0,0,1,6.067,2.706,10.416,10.416,0,0,1,2.488,7.333,11.171,11.171,0,0,1-2.6,7.77,8.64,8.64,0,0,1-12.418.48,11.235,11.235,0,0,1-3.055-6.94l-11.873,1.44A19.636,19.636,0,0,0,397.287,393.4ZM485,344.669V333.32H472.73v11.349H485Zm0,52.641V350.954H472.73V397.31H485Zm13.89,0H511.15V374.787q0-6.679.982-9.56a8.386,8.386,0,0,1,3.252-4.408,8.941,8.941,0,0,1,5.107-1.528,6.427,6.427,0,0,1,3.732.96,5.575,5.575,0,0,1,2.03,2.925q0.654,1.964.654,8.73v25.4h12.266V375.049q0-6.547,1-9.581a8.707,8.707,0,0,1,3.274-4.605,8.352,8.352,0,0,1,4.845-1.572,5.808,5.808,0,0,1,5.237,2.619q1.266,2.008,1.266,8.9v26.5h12.266V367.672q0-6.635-1.266-9.6a12.7,12.7,0,0,0-5.282-6.089,16.82,16.82,0,0,0-8.642-2.073,16.169,16.169,0,0,0-7.551,1.833,21.41,21.41,0,0,0-6.592,5.543,14.085,14.085,0,0,0-5.368-5.543,15.565,15.565,0,0,0-7.726-1.833q-8.38,0-14.448,7.376v-6.329H498.885V397.31Zm109.751,0h24.313a39.1,39.1,0,0,0,11.436-1.353,22.73,22.73,0,0,0,9.079-5.107,28.217,28.217,0,0,0,6.853-11.306,42.061,42.061,0,0,0,1.964-13.618,47.226,47.226,0,0,0-2.095-15.125,27.965,27.965,0,0,0-6.111-10.366,21.409,21.409,0,0,0-9.646-5.893,46.149,46.149,0,0,0-12.178-1.222H608.636v63.99Zm18.726-53.165a58.636,58.636,0,0,1,10.607.611,12.294,12.294,0,0,1,5.979,3.012,14.635,14.635,0,0,1,3.667,6.2,38.225,38.225,0,0,1,1.31,11.392,41.736,41.736,0,0,1-1.31,11.72,13.548,13.548,0,0,1-3.383,6.177,11.929,11.929,0,0,1-5.216,2.662,35.17,35.17,0,0,1-7.813.611h-9.647V344.145h5.806Zm60.288,0.524V333.32H675.385v11.349H687.65Zm0,52.641V350.954H675.385V397.31H687.65Zm38.682-9.69a7.511,7.511,0,0,1-4.845,1.571,9.28,9.28,0,0,1-7.071-3.034q-2.838-3.033-2.968-8.49h30.729q0.261-14.1-5.718-20.929t-16.325-6.831a19.84,19.84,0,0,0-15.234,6.525q-6.022,6.526-6.023,18.049,0,9.648,4.583,15.976,5.805,7.9,17.9,7.9,7.638,0,12.724-3.514a20.048,20.048,0,0,0,7.442-10.235L729.3,382.556A9.705,9.705,0,0,1,726.332,387.62Zm-14.666-17.46a11.318,11.318,0,0,1,2.575-7.944,8.851,8.851,0,0,1,13.008-.153q2.619,2.772,2.75,8.1H711.666Zm84.906-1.659a38.327,38.327,0,0,0-.676-8.25,13.541,13.541,0,0,0-2.4-5.15,12.444,12.444,0,0,0-5.085-3.732,18.4,18.4,0,0,0-7.42-1.462q-9.211,0-15.278,7.856v-6.809H754.32V397.31h12.265v-21q0-7.769.939-10.65a8.791,8.791,0,0,1,3.47-4.627,9.839,9.839,0,0,1,5.718-1.746,7.3,7.3,0,0,1,4.256,1.222,6.82,6.82,0,0,1,2.553,3.427q0.786,2.205.786,9.712V397.31h12.265V368.5Zm17.578,26.015q5.522,3.841,14.993,3.841,10.432,0,15.758-4.583a14,14,0,0,0,5.325-10.956q0-5.849-3.841-9.123-3.885-3.23-13.684-5.456t-11.458-3.448a2.71,2.71,0,0,1-1.222-2.226,2.9,2.9,0,0,1,1.4-2.488q2.094-1.353,6.94-1.353a10.3,10.3,0,0,1,5.914,1.44,7.159,7.159,0,0,1,2.816,4.147l11.567-2.139a15.848,15.848,0,0,0-6.373-9.166q-4.628-3.1-14.143-3.1-10,0-14.753,4.1a12.856,12.856,0,0,0-4.758,10.126,11.943,11.943,0,0,0,5.5,10.432q3.972,2.707,18.813,5.98a9.792,9.792,0,0,1,4.1,1.615,3.222,3.222,0,0,1,.873,2.314,3.9,3.9,0,0,1-1.615,3.273q-2.4,1.748-7.159,1.746a10.76,10.76,0,0,1-6.722-1.855,9.02,9.02,0,0,1-3.186-5.434l-12.309,1.877A17.691,17.691,0,0,0,814.15,394.516Zm61.925-43.562V334.586l-12.309,7.158v9.21h-5.631v9.778h5.631v20.209a59.438,59.438,0,0,0,.393,8.643,11.368,11.368,0,0,0,1.724,4.779,8.718,8.718,0,0,0,3.907,2.881,15.365,15.365,0,0,0,5.98,1.113,24.393,24.393,0,0,0,9.69-1.833l-1.048-9.516a15.863,15.863,0,0,1-4.932,1.179,3.46,3.46,0,0,1-2.074-.611,2.7,2.7,0,0,1-1.091-1.55,46.464,46.464,0,0,1-.24-6.613V360.732h8.381v-9.778h-8.381Zm88.713-17.634H952.522v23.047q-5.674-6.461-13.444-6.46a18.072,18.072,0,0,0-14.011,6.132q-5.544,6.134-5.543,17.918,0,11.524,5.7,17.962a17.653,17.653,0,0,0,13.684,6.438,17.2,17.2,0,0,0,7.791-1.942,18.406,18.406,0,0,0,6.7-5.915v6.81h11.393V333.32ZM935,362.761a9.216,9.216,0,0,1,7.311-3.47,9.118,9.118,0,0,1,7.377,3.514q2.882,3.515,2.881,11.5,0,7.158-2.968,10.759a9.027,9.027,0,0,1-7.2,3.6,9.269,9.269,0,0,1-8.294-4.8q-2.052-3.317-2.051-10.738Q932.051,366.231,935,362.761Zm67.993,24.859a7.506,7.506,0,0,1-4.846,1.571,9.283,9.283,0,0,1-7.071-3.034q-2.838-3.033-2.968-8.49h30.725q0.27-14.1-5.71-20.929t-16.329-6.831a19.838,19.838,0,0,0-15.233,6.525q-6.024,6.526-6.024,18.049,0,9.648,4.583,15.976,5.805,7.9,17.9,7.9,7.644,0,12.726-3.514a20.034,20.034,0,0,0,7.44-10.235l-12.22-2.052A9.707,9.707,0,0,1,1002.99,387.62Zm-14.667-17.46a11.318,11.318,0,0,1,2.576-7.944,8.854,8.854,0,0,1,13.011-.153q2.61,2.772,2.75,8.1H988.323Zm45.647,24.356q5.52,3.841,14.99,3.841,10.44,0,15.76-4.583a14,14,0,0,0,5.32-10.956q0-5.849-3.84-9.123-3.885-3.23-13.68-5.456t-11.46-3.448a2.72,2.72,0,0,1-1.22-2.226,2.9,2.9,0,0,1,1.39-2.488q2.1-1.353,6.95-1.353a10.278,10.278,0,0,1,5.91,1.44,7.192,7.192,0,0,1,2.82,4.147l11.56-2.139a15.84,15.84,0,0,0-6.37-9.166q-4.635-3.1-14.14-3.1-10.005,0-14.76,4.1a12.854,12.854,0,0,0-4.75,10.126,11.934,11.934,0,0,0,5.5,10.432q3.96,2.707,18.81,5.98a9.793,9.793,0,0,1,4.1,1.615,3.228,3.228,0,0,1,.87,2.314,3.882,3.882,0,0,1-1.61,3.273q-2.4,1.748-7.16,1.746a10.754,10.754,0,0,1-6.72-1.855,9.053,9.053,0,0,1-3.19-5.434l-12.31,1.877A17.731,17.731,0,0,0,1033.97,394.516Zm89.3,2.794V377.973l10.48-10.694,17.59,30.031h16.71l-25.4-39.066,24.09-24.924h-17.37l-26.1,28.416V333.32h-12.92v63.99h12.92Zm95.51,0V350.954h-12.26v19.555q0,9.952-.92,12.506a8.8,8.8,0,0,1-3.4,4.277,9.659,9.659,0,0,1-5.63,1.724,7.563,7.563,0,0,1-4.54-1.287,6.5,6.5,0,0,1-2.47-3.492q-0.675-2.2-.68-11.982v-21.3h-12.26v29.332q0,6.548,1.66,10.258a12.081,12.081,0,0,0,5.36,5.762,17.07,17.07,0,0,0,8.39,2.051,18.644,18.644,0,0,0,8.7-2.139,17.882,17.882,0,0,0,6.66-5.849v6.941h11.39Zm57.1-28.809a38.463,38.463,0,0,0-.67-8.25,13.494,13.494,0,0,0-2.4-5.15,12.463,12.463,0,0,0-5.09-3.732,18.384,18.384,0,0,0-7.42-1.462q-9.21,0-15.28,7.856v-6.809h-11.39V397.31h12.27v-21q0-7.769.94-10.65a8.756,8.756,0,0,1,3.47-4.627,9.809,9.809,0,0,1,5.71-1.746,7.317,7.317,0,0,1,4.26,1.222,6.781,6.781,0,0,1,2.55,3.427q0.8,2.205.79,9.712V397.31h12.26V368.5Zm57.19-35.181h-12.26v23.047q-5.67-6.461-13.45-6.46a18.084,18.084,0,0,0-14.01,6.132q-5.535,6.134-5.54,17.918,0,11.524,5.7,17.962a17.627,17.627,0,0,0,13.68,6.438,17.176,17.176,0,0,0,7.79-1.942,18.35,18.35,0,0,0,6.7-5.915v6.81h11.39V333.32Zm-29.79,29.441a9.222,9.222,0,0,1,7.31-3.47,9.12,9.12,0,0,1,7.38,3.514q2.88,3.515,2.88,11.5,0,7.158-2.97,10.759a9.028,9.028,0,0,1-7.2,3.6,9.265,9.265,0,0,1-8.29-4.8q-2.055-3.317-2.05-10.738Q1300.34,366.231,1303.28,362.761Zm68,24.859a7.529,7.529,0,0,1-4.85,1.571,9.281,9.281,0,0,1-7.07-3.034q-2.835-3.033-2.97-8.49h30.73q0.255-14.1-5.72-20.929t-16.32-6.831a19.858,19.858,0,0,0-15.24,6.525q-6.015,6.526-6.02,18.049,0,9.648,4.58,15.976,5.8,7.9,17.9,7.9,7.635,0,12.72-3.514a20.105,20.105,0,0,0,7.45-10.235l-12.23-2.052A9.765,9.765,0,0,1,1371.28,387.62Zm-14.67-17.46a11.339,11.339,0,0,1,2.57-7.944,8.531,8.531,0,0,1,6.64-2.925,8.427,8.427,0,0,1,6.37,2.772c1.75,1.848,2.66,4.547,2.75,8.1h-18.33Zm84.91-1.659a38.345,38.345,0,0,0-.68-8.25,13.494,13.494,0,0,0-2.4-5.15,12.463,12.463,0,0,0-5.09-3.732,18.384,18.384,0,0,0-7.42-1.462q-9.21,0-15.27,7.856v-6.809h-11.4V397.31h12.27v-21q0-7.769.94-10.65a8.756,8.756,0,0,1,3.47-4.627,9.818,9.818,0,0,1,5.72-1.746,7.307,7.307,0,0,1,4.25,1.222,6.781,6.781,0,0,1,2.55,3.427q0.8,2.205.79,9.712V397.31h12.27V368.5Z"/>
</svg>
